<svg width="450" height="68" viewBox="0 0 450 68" fill="none" xmlns="http://www.w3.org/2000/svg">
<g clip-path="url(#clip0_529_438)">
<path d="M448.87 66.29V1L1.00012 1V66.29L448.87 66.29Z" stroke="#231F20" stroke-width="2" stroke-miterlimit="10"/>
<path d="M23.6802 43.2602V24.0302C23.6802 23.8102 23.8202 23.6802 24.0602 23.6802H27.2202C27.4502 23.6802 27.6002 23.8202 27.6002 24.0302V40.1102H37.8702C38.1002 40.1102 38.2502 40.2502 38.2502 40.4602V43.2602C38.2502 43.4802 38.1002 43.6102 37.8702 43.6102H24.0602C23.8302 43.6102 23.6802 43.4702 23.6802 43.2602Z" fill="black"/>
<path d="M46.0703 43.2602V24.0302C46.0703 23.8102 46.2103 23.6802 46.4503 23.6802H49.6103C49.8403 23.6802 49.9903 23.8202 49.9903 24.0302V43.2602C49.9903 43.4802 49.8403 43.6102 49.6103 43.6102H46.4503C46.2203 43.6102 46.0703 43.4702 46.0703 43.2602Z" fill="black"/>
<path d="M59.54 43.2602V24.0302C59.54 23.8102 59.68 23.6802 59.92 23.6802H63.26C63.46 23.6802 63.61 23.7602 63.72 23.9302L73.23 37.7002V24.0402C73.23 23.8202 73.38 23.6902 73.61 23.6902H76.63C76.86 23.6902 77.01 23.8302 77.01 24.0402V43.2702C77.01 43.4902 76.86 43.6202 76.63 43.6202H73.32C73.12 43.6202 72.97 43.5402 72.86 43.3802L63.32 29.5802V43.2702C63.32 43.4902 63.17 43.6202 62.94 43.6202H59.92C59.69 43.6202 59.54 43.4802 59.54 43.2702V43.2602Z" fill="black"/>
<path d="M86.6201 43.2602V24.0302C86.6201 23.8102 86.7601 23.6802 87.0001 23.6802H100.46C100.69 23.6802 100.84 23.8202 100.84 24.0302V26.7702C100.84 26.9902 100.69 27.1202 100.46 27.1202H90.5401V31.6502H99.5001C99.7301 31.6502 99.8801 31.7902 99.8801 32.0002V34.6902C99.8801 34.9102 99.7301 35.0402 99.5001 35.0402H90.5401V40.1502H100.81C101.04 40.1502 101.19 40.2902 101.19 40.5002V43.2402C101.19 43.4602 101.04 43.5902 100.81 43.5902H87.0001C86.7701 43.5902 86.6201 43.4502 86.6201 43.2402V43.2602Z" fill="black"/>
<path d="M119.9 43.2597V24.0297C119.9 23.8097 120.05 23.6797 120.28 23.6797H133.25C133.48 23.6797 133.63 23.8197 133.63 24.0297V26.7697C133.63 26.9897 133.48 27.1197 133.25 27.1197H123.82V32.2797H131.94C132.17 32.2797 132.32 32.4197 132.32 32.6297V35.3697C132.32 35.5897 132.17 35.7197 131.94 35.7197H123.82V43.2397C123.82 43.4597 123.67 43.5897 123.44 43.5897H120.28C120.05 43.5897 119.9 43.4497 119.9 43.2397V43.2597Z" fill="black"/>
<path d="M141.2 43.2597V24.0297C141.2 23.8097 141.35 23.6797 141.58 23.6797H148.02C153.91 23.6797 156.46 26.1197 156.46 30.6297C156.46 33.0697 155.47 35.1397 153.36 36.3897L157.33 43.1797C157.48 43.4197 157.36 43.6097 157.07 43.6097H153.5C153.3 43.6097 153.15 43.5297 153.06 43.3697L149.64 37.4997C149.12 37.5497 148.6 37.5797 148.02 37.5797H145.12V43.2597C145.12 43.4797 144.97 43.6097 144.74 43.6097H141.58C141.35 43.6097 141.2 43.4697 141.2 43.2597ZM145.12 27.0697V34.1797H147.88C150.95 34.1797 152.41 33.1197 152.41 30.6197C152.41 28.1197 150.96 27.0597 147.88 27.0597H145.12V27.0697Z" fill="black"/>
<path d="M164.49 43.2597V24.0297C164.49 23.8097 164.64 23.6797 164.87 23.6797H168.03C168.26 23.6797 168.41 23.8197 168.41 24.0297V43.2597C168.41 43.4797 168.26 43.6097 168.03 43.6097H164.87C164.64 43.6097 164.49 43.4697 164.49 43.2597Z" fill="black"/>
<path d="M177.68 43.2597V24.0297C177.68 23.8097 177.83 23.6797 178.06 23.6797H191.52C191.75 23.6797 191.9 23.8197 191.9 24.0297V26.7697C191.9 26.9897 191.75 27.1197 191.52 27.1197H181.6V31.6497H190.56C190.79 31.6497 190.94 31.7897 190.94 31.9997V34.6897C190.94 34.9097 190.79 35.0397 190.56 35.0397H181.6V40.1497H191.87C192.1 40.1497 192.25 40.2897 192.25 40.4997V43.2397C192.25 43.4597 192.1 43.5897 191.87 43.5897H178.06C177.83 43.5897 177.68 43.4497 177.68 43.2397V43.2597Z" fill="black"/>
<path d="M200.44 43.2597V24.0297C200.44 23.8097 200.58 23.6797 200.82 23.6797H204.16C204.36 23.6797 204.51 23.7597 204.62 23.9297L214.13 37.6997V24.0397C214.13 23.8197 214.28 23.6897 214.51 23.6897H217.53C217.76 23.6897 217.91 23.8297 217.91 24.0397V43.2697C217.91 43.4897 217.76 43.6197 217.53 43.6197H214.22C214.02 43.6197 213.87 43.5397 213.76 43.3797L204.22 29.5797V43.2697C204.22 43.4897 204.07 43.6197 203.84 43.6197H200.82C200.59 43.6197 200.44 43.4797 200.44 43.2697V43.2597Z" fill="black"/>
<path d="M227.24 43.2597V24.0297C227.24 23.8097 227.38 23.6797 227.62 23.6797H234.7C241.78 23.6797 245.46 27.3697 245.46 33.6497C245.46 39.9297 241.78 43.6197 234.7 43.6197H227.62C227.39 43.6197 227.24 43.4797 227.24 43.2697V43.2597ZM231.16 27.1297V40.1597H234.26C238.99 40.1597 241.4 37.8197 241.4 33.6397C241.4 29.4597 238.99 27.1197 234.26 27.1197H231.16V27.1297Z" fill="black"/>
<path d="M252.04 38.7198C251.95 38.4998 252.07 38.3398 252.3 38.2898L255.32 37.6098C255.55 37.5598 255.7 37.6398 255.78 37.8498C256.53 39.5898 257.75 40.3998 259.93 40.3998C261.99 40.3998 263.38 39.7798 263.38 38.2798C263.38 36.7798 262.07 36.0498 259.9 35.3198L258.01 34.6998C254.62 33.6098 252.56 31.7398 252.56 28.8898C252.56 25.6298 255.66 23.2998 259.7 23.2998C263.27 23.2998 265.94 24.8498 267.01 28.1598C267.1 28.3798 266.98 28.5398 266.75 28.5998L263.56 29.3598C263.33 29.4098 263.18 29.3298 263.1 29.1098C262.4 27.4798 261.3 26.8798 259.71 26.8798C257.85 26.8798 256.64 27.6098 256.64 28.7798C256.64 30.0298 257.74 30.8398 260.24 31.6298L261.75 32.0898C265.61 33.2798 267.46 34.9998 267.46 38.2798C267.46 41.5598 264.39 43.9798 259.95 43.9798C255.98 43.9798 253.19 42.1598 252.06 38.7098L252.04 38.7198Z" fill="black"/>
<path d="M286.18 38.7198C286.09 38.4998 286.21 38.3398 286.44 38.2898L289.46 37.6098C289.69 37.5598 289.84 37.6398 289.92 37.8498C290.67 39.5898 291.89 40.3998 294.07 40.3998C296.13 40.3998 297.52 39.7798 297.52 38.2798C297.52 36.7798 296.21 36.0498 294.04 35.3198L292.15 34.6998C288.76 33.6098 286.7 31.7398 286.7 28.8898C286.7 25.6298 289.8 23.2998 293.84 23.2998C297.41 23.2998 300.08 24.8498 301.15 28.1598C301.24 28.3798 301.12 28.5398 300.89 28.5998L297.7 29.3598C297.47 29.4098 297.32 29.3298 297.24 29.1098C296.54 27.4798 295.44 26.8798 293.85 26.8798C291.99 26.8798 290.78 27.6098 290.78 28.7798C290.78 30.0298 291.88 30.8398 294.38 31.6298L295.89 32.0898C299.75 33.2798 301.6 34.9998 301.6 38.2798C301.6 41.5598 298.53 43.9798 294.09 43.9798C290.12 43.9798 287.33 42.1598 286.2 38.7098L286.18 38.7198Z" fill="black"/>
<path d="M337.36 35.4902V24.0302C337.36 23.8102 337.5 23.6802 337.74 23.6802H340.9C341.13 23.6802 341.28 23.8202 341.28 24.0302V34.8402C341.28 38.7502 343.31 40.4102 345.98 40.4102C348.65 40.4102 350.71 38.7502 350.71 34.8402V24.0302C350.71 23.8102 350.86 23.6802 351.09 23.6802H354.25C354.48 23.6802 354.63 23.8202 354.63 24.0302V35.4902C354.63 41.8202 350.16 43.9902 345.99 43.9902C341.82 43.9902 337.38 41.8202 337.38 35.4902H337.36Z" fill="black"/>
<path d="M360.12 43.2002L368.62 23.9502C368.71 23.7602 368.85 23.6802 369.06 23.6802H371.76C371.96 23.6802 372.11 23.7602 372.2 23.9502L380.7 43.2002C380.82 43.4502 380.67 43.6102 380.41 43.6102H376.75C376.55 43.6102 376.4 43.5302 376.31 43.3402L374.8 39.6202H365.95L364.44 43.3402C364.35 43.5302 364.21 43.6102 364 43.6102H360.4C360.14 43.6102 359.99 43.4502 360.11 43.2002H360.12ZM373.4 36.2202L370.35 28.6702L367.3 36.2202H373.39H373.4Z" fill="black"/>
<path d="M387.351 43.2602V24.0302C387.351 23.8102 387.491 23.6802 387.731 23.6802H394.171C400.061 23.6802 402.611 26.1202 402.611 30.6302C402.611 33.0702 401.621 35.1402 399.511 36.3902L403.481 43.1802C403.631 43.4202 403.511 43.6102 403.221 43.6102H399.651C399.451 43.6102 399.301 43.5302 399.211 43.3702L395.791 37.5002C395.271 37.5502 394.751 37.5802 394.171 37.5802H391.271V43.2602C391.271 43.4802 391.121 43.6102 390.891 43.6102H387.731C387.501 43.6102 387.351 43.4702 387.351 43.2602ZM391.271 27.0702V34.1802H394.031C397.101 34.1802 398.561 33.1202 398.561 30.6202C398.561 28.1202 397.111 27.0602 394.031 27.0602H391.271V27.0702Z" fill="black"/>
<path d="M411.63 43.2602V24.0302C411.63 23.8102 411.78 23.6802 412.01 23.6802H425.47C425.7 23.6802 425.85 23.8202 425.85 24.0302V26.7702C425.85 26.9902 425.7 27.1202 425.47 27.1202H415.55V31.6502H424.51C424.74 31.6502 424.89 31.7902 424.89 32.0002V34.6902C424.89 34.9102 424.74 35.0402 424.51 35.0402H415.55V40.1502H425.82C426.05 40.1502 426.2 40.2902 426.2 40.5002V43.2402C426.2 43.4602 426.05 43.5902 425.82 43.5902H412.01C411.78 43.5902 411.63 43.4502 411.63 43.2402V43.2602Z" fill="black"/>
<path d="M327.05 40C327.36 39.63 327.64 39.24 327.9 38.81C328.81 37.29 329.27 35.51 329.27 33.46C329.27 31.41 328.81 29.63 327.9 28.11C326.99 26.59 325.74 25.41 324.15 24.56C322.56 23.72 320.75 23.29 318.72 23.29C316.69 23.29 314.88 23.71 313.29 24.56C311.7 25.41 310.45 26.59 309.54 28.11C308.63 29.63 308.17 31.41 308.17 33.46C308.17 35.51 308.63 37.29 309.54 38.81C310.45 40.33 311.7 41.51 313.29 42.36C314.88 43.2 316.69 43.63 318.72 43.63C320.75 43.63 322.56 43.21 324.15 42.36L326.21 44.66C326.37 44.84 326.54 44.85 326.73 44.7L329.11 42.83C329.3 42.68 329.31 42.52 329.16 42.34L327.05 39.99V40ZM318.73 40.1C317.4 40.1 316.24 39.82 315.25 39.25C314.26 38.68 313.5 37.89 312.97 36.89C312.44 35.89 312.17 34.74 312.17 33.46C312.17 32.18 312.44 31.01 312.97 30.02C313.5 29.02 314.26 28.24 315.25 27.67C316.24 27.1 317.4 26.82 318.73 26.82C320.06 26.82 321.24 27.11 322.22 27.67C323.2 28.24 323.95 29.02 324.49 30.02C325.02 31.02 325.29 32.16 325.29 33.46C325.29 34.76 325.02 35.88 324.49 36.89C324.46 36.94 324.43 36.98 324.4 37.03L321.33 33.61C321.17 33.43 321 33.42 320.81 33.57L318.43 35.44C318.24 35.59 318.23 35.75 318.38 35.93L321.62 39.55C320.77 39.92 319.81 40.12 318.72 40.12L318.73 40.1Z" fill="black"/>
</g>
<defs>
<clipPath id="clip0_529_438">
<rect width="449.87" height="67.29" fill="white"/>
</clipPath>
</defs>
</svg>
